<svg width="143" height="60" viewBox="0 0 143 60" fill="none" xmlns="http://www.w3.org/2000/svg">
<path d="M35.9978 14.9055C35.9974 14.8851 35.9978 14.8651 35.9978 14.8447C35.9978 14.3553 35.4852 14.0571 35.0868 14.2937C34.0943 14.8834 33.1014 15.4735 32.1088 16.0633C30.5266 17.0036 28.9443 17.9435 27.3625 18.8839C27.1017 19.0388 26.8414 19.1936 26.5807 19.3485C25.7032 18.8196 24.8253 18.2912 23.9478 17.7623C22.3873 16.8224 20.8265 15.882 19.266 14.9421C18.9072 14.726 18.5484 14.5098 18.1895 14.2937C17.7948 14.0558 17.2737 14.3558 17.2785 14.8447C17.2822 15.2314 17.2858 15.6182 17.2894 16.005C17.2983 16.9283 17.3072 17.8516 17.3161 18.7754C17.327 19.8978 17.3375 21.0203 17.3483 22.1427C17.3576 23.1095 17.3669 24.0758 17.3762 25.0425C17.3786 25.3097 17.3778 25.5777 17.3794 25.8454C17.2793 25.8454 17.1796 25.8454 17.0795 25.8454C16.3098 25.8454 15.5405 25.8454 14.7707 25.8454C13.7568 25.8454 12.7429 25.8454 11.729 25.8454C10.6856 25.8454 9.64218 25.8454 8.59878 25.8454C7.7568 25.8454 6.91483 25.8454 6.07285 25.8454C5.64661 25.8454 5.22077 25.845 4.79454 25.8454C3.53682 25.8462 2.32026 26.3492 1.41935 27.2806C0.509564 28.2213 0.00260119 29.5293 0.000179393 30.8696C-0.000224241 31.1015 0.000179393 31.3334 0.000179393 31.5649C0.000179393 32.084 0.000179393 32.6026 0.000179393 33.1217C0.000179393 33.8719 0.000179393 34.622 0.000179393 35.3722C0.000179393 36.3027 0.000179393 37.2333 0.000179393 38.1638C0.000179393 39.2097 0.000179393 40.2556 0.000179393 41.3014C0.000179393 42.4111 0.000179393 43.5204 0.000179393 44.6301C0.000179393 45.7474 0.000179393 46.8648 0.000179393 47.9825C0.000179393 49.0522 0.000179393 50.1215 0.000179393 51.1912C0.000179393 52.1571 0.000179393 53.1229 0.000179393 54.0888C0.000179393 54.8951 0.000179393 55.7014 0.000179393 56.5082C0.000179393 57.0992 0.000179393 57.6906 0.000179393 58.2816C0.000179393 58.6024 0.000179393 58.9237 0.000179393 59.2445C0.000179393 59.2849 0.000179393 59.3249 0.000179393 59.3654C0.000179393 59.8525 0.513602 60.1559 0.911181 59.9164C1.88999 59.3266 2.8688 58.7373 3.84761 58.1476C5.40806 57.2077 6.96891 56.2673 8.52936 55.3274C8.78647 55.1725 9.04318 55.0177 9.3003 54.8628C10.1774 55.3912 11.0541 55.9193 11.9312 56.4477C13.492 57.3877 15.0525 58.328 16.6129 59.2679C16.9718 59.4841 17.3306 59.7002 17.6894 59.9164C18.087 60.1559 18.6004 59.8525 18.6004 59.3654C18.6004 59.0301 18.6004 58.6948 18.6004 58.3595C18.6004 57.4668 18.6004 56.5741 18.6004 55.6814C18.6004 54.4015 18.6004 53.1212 18.6004 51.8413C18.6004 50.6823 18.6004 49.5233 18.6004 48.3642C18.8914 48.3642 19.1821 48.3642 19.4731 48.3642C19.9231 48.3642 20.3732 48.3642 20.8228 48.3642C21.3718 48.3642 21.9207 48.3642 22.4697 48.3642C23.069 48.3642 23.668 48.3642 24.2674 48.3642C24.8765 48.3642 25.4852 48.3642 26.0943 48.3642C26.6582 48.3642 27.222 48.3642 27.7859 48.3642C28.2642 48.3642 28.7425 48.3642 29.2208 48.3642C29.5647 48.3642 29.9086 48.3642 30.2525 48.3642C30.4152 48.3642 30.5774 48.3655 30.7401 48.3642C30.7474 48.3642 30.7542 48.3642 30.7615 48.3642C30.8422 48.3642 30.9225 48.3642 31.0033 48.3642C31.0146 48.3642 31.0259 48.3642 31.0376 48.3642C32.0527 48.3642 33.0408 48.1306 33.8897 47.5196C34.8039 46.8618 35.4897 45.898 35.8057 44.776C35.9954 44.1012 35.9982 43.4234 35.9982 42.732C35.9982 41.9614 35.9982 41.1908 35.9982 40.4207C35.9982 39.2297 35.9982 38.0388 35.9982 36.8478C35.9982 35.3964 35.9982 33.9447 35.9982 32.4933C35.9982 30.9253 35.9982 29.3574 35.9982 27.7895C35.9982 26.2696 35.9982 24.7497 35.9982 23.2299C35.9982 21.9015 35.9982 20.5735 35.9982 19.2451C35.9982 18.2686 35.9982 17.2921 35.9982 16.3156C35.9978 15.8454 36.0027 15.3753 35.9978 14.9055ZM15.3379 57.0294C13.7734 56.0869 12.2093 55.1449 10.6448 54.2024C10.3017 53.996 9.96307 53.7761 9.61392 53.5816C9.33743 53.4276 9.10535 53.5089 8.87003 53.6505C8.69324 53.7569 8.51644 53.8637 8.33965 53.9701C6.84823 54.8683 5.3568 55.767 3.86538 56.6652C2.98021 57.1983 2.09504 57.7314 1.20987 58.2646C1.20987 58.0033 1.20987 57.7421 1.20987 57.4808C1.20987 56.7783 1.20987 56.0763 1.20987 55.3738C1.20987 54.4858 1.20987 53.5978 1.20987 52.7098C1.20987 51.6911 1.20987 50.6725 1.20987 49.6539C1.20987 48.5595 1.20987 47.4651 1.20987 46.3708C1.20987 45.2555 1.20987 44.1403 1.20987 43.0251C1.20987 41.9444 1.20987 40.8632 1.20987 39.7824C1.20987 38.7906 1.20987 37.7988 1.20987 36.8074C1.20987 35.9598 1.20987 35.1122 1.20987 34.2646C1.20987 33.6162 1.20987 32.9677 1.20987 32.3193C1.20987 31.9261 1.20987 31.533 1.20987 31.1398C1.20987 31.0543 1.20987 30.9687 1.20987 30.8832C1.20987 30.8717 1.20987 30.8598 1.20987 30.8483C1.21068 30.6709 1.24458 30.4888 1.24216 30.3131C1.24297 30.3063 1.24418 30.2994 1.24539 30.2926C1.25225 30.2484 1.25992 30.2046 1.2684 30.1607C1.28616 30.0663 1.30715 29.9727 1.33096 29.8795C1.35437 29.7872 1.38101 29.6961 1.41007 29.6055C1.42339 29.5642 1.43752 29.5229 1.45205 29.4816C1.4581 29.4651 1.48434 29.3983 1.49241 29.3766C1.50049 29.3578 1.50815 29.3395 1.51138 29.3327C1.52874 29.2932 1.5469 29.254 1.56506 29.2153C1.60502 29.1315 1.64741 29.0489 1.69261 28.9681C1.73742 28.8872 1.78464 28.8081 1.83429 28.7307C1.8573 28.6949 1.88071 28.6596 1.90452 28.6247C1.91663 28.6073 1.92874 28.5898 1.94045 28.5724C1.98283 28.5103 1.94166 28.5575 1.9247 28.589C1.95336 28.5239 2.03369 28.4528 2.07728 28.4013C2.13581 28.3315 2.19675 28.2643 2.25932 28.1988C2.32188 28.1333 2.38686 28.0699 2.45346 28.0086C2.48414 27.9805 2.51522 27.9524 2.5467 27.9252C2.5568 27.9167 2.56689 27.9082 2.57698 27.8997C2.71502 27.7992 2.84983 27.6976 2.99595 27.6095C3.07345 27.5627 3.15215 27.5189 3.23207 27.4776C3.26921 27.4584 3.30675 27.4406 3.34388 27.4218C3.34792 27.4197 3.35236 27.4172 3.3576 27.4142C3.36124 27.4129 3.36568 27.4112 3.37052 27.4091C3.53319 27.3435 3.69706 27.284 3.86578 27.238C3.95417 27.2138 4.04378 27.1929 4.13339 27.175C4.17213 27.1674 4.21048 27.161 4.24923 27.1538C4.26416 27.1516 4.28233 27.1487 4.28919 27.1482C4.44055 27.1308 4.59272 27.1227 4.74489 27.1223C4.76871 27.1223 4.79252 27.1223 4.81634 27.1223C4.97658 27.1223 5.13682 27.1223 5.29706 27.1223C5.97355 27.1223 6.64964 27.1223 7.32613 27.1223C8.29647 27.1223 9.2668 27.1223 10.2375 27.1223C11.2854 27.1223 12.3332 27.1223 13.3814 27.1223C14.2904 27.1223 15.199 27.1223 16.108 27.1223C16.6614 27.1223 17.2143 27.1223 17.7677 27.1223C17.8432 27.1223 17.9191 27.1223 17.9946 27.1223C18.1262 27.1223 18.2581 27.1223 18.3897 27.1223C18.5504 27.1223 18.711 27.1223 18.8717 27.1223C18.106 27.8541 17.5865 28.8847 17.444 29.9625C17.352 30.6594 17.3887 31.3747 17.3887 32.0763C17.3887 32.3197 17.3887 32.5635 17.3887 32.8069C17.3887 33.303 17.3887 33.7991 17.3887 34.2953C17.3887 35.3122 17.3887 36.3291 17.3887 37.3461C17.3887 38.7153 17.3887 40.085 17.3887 41.4542C17.3887 42.9924 17.3887 44.5305 17.3887 46.0687C17.3887 47.6064 17.3887 49.1437 17.3887 50.6814C17.3887 52.0447 17.3887 53.408 17.3887 54.7713C17.3887 55.7869 17.3887 56.8022 17.3887 57.8178C17.3887 57.9663 17.3879 58.1152 17.3875 58.2642C16.7046 57.8527 16.0212 57.4408 15.3379 57.0294ZM24.7183 47.0873C24.1092 47.0873 23.5005 47.0873 22.8915 47.0873C22.3276 47.0873 21.7637 47.0873 21.1998 47.0873C20.7215 47.0873 20.2432 47.0873 19.7649 47.0873C19.421 47.0873 19.0771 47.0873 18.7332 47.0873C18.6888 47.0873 18.6444 47.0873 18.5996 47.0869C18.5996 45.6296 18.5996 44.1722 18.5996 42.7149C18.5996 41.2929 18.5996 39.8714 18.5996 38.4494C18.5996 37.3201 18.5996 36.1913 18.5996 35.062C18.5996 34.397 18.5996 33.7319 18.5996 33.0669C18.5996 32.4571 18.5996 31.8474 18.5996 31.2372C18.5996 31.0049 18.5948 30.7722 18.6016 30.5403C18.6037 30.4794 18.6065 30.4182 18.6109 30.3573C18.6137 30.3194 18.617 30.282 18.6206 30.2441C18.621 30.2407 18.6214 30.2361 18.6218 30.2305C18.6182 30.302 18.623 30.2139 18.6267 30.1901C18.6323 30.1531 18.638 30.1165 18.6444 30.0795C18.6573 30.0063 18.6719 29.9339 18.6884 29.8616C18.7147 29.7472 18.7453 29.634 18.7804 29.5221C18.8002 29.4595 18.822 29.3983 18.8438 29.3366C18.8462 29.3302 18.8499 29.3183 18.8535 29.3068C18.8531 29.3085 18.8527 29.3097 18.8519 29.3119C18.822 29.4089 18.8705 29.2685 18.8793 29.2485C18.9794 29.0191 19.0993 28.7996 19.2365 28.5932C19.2523 28.5698 19.2688 28.5468 19.2842 28.5234C19.2858 28.5209 19.287 28.5192 19.2886 28.5166C19.3233 28.4724 19.3572 28.4273 19.3932 28.3839C19.4731 28.2864 19.5574 28.1928 19.6458 28.1039C19.7294 28.0197 19.8166 27.9401 19.9058 27.8626C19.9239 27.8469 19.9978 27.7975 19.9247 27.8465C19.8404 27.9026 19.9522 27.8265 19.9619 27.8192C20.0172 27.7775 20.0737 27.7371 20.131 27.6984C20.223 27.6363 20.3175 27.578 20.4139 27.5235C20.4684 27.4929 20.5237 27.464 20.5794 27.4359C20.6045 27.4235 20.6295 27.4116 20.6545 27.3997C20.6569 27.3984 20.6585 27.3976 20.661 27.3967C20.6614 27.3967 20.6618 27.3963 20.6622 27.3963C20.8886 27.3159 21.1078 27.2329 21.3431 27.1827C21.4057 27.1695 21.4682 27.1589 21.5312 27.1474C21.5373 27.1465 21.5421 27.1453 21.5465 27.144C21.5623 27.1431 21.5772 27.1427 21.5829 27.1423C21.7128 27.1291 21.8432 27.1231 21.9736 27.1223C22.0006 27.1223 22.0273 27.1223 22.0543 27.1223C22.0579 27.1223 22.062 27.1223 22.0656 27.1223C22.2343 27.1227 22.4022 27.1338 22.5698 27.1538C22.8919 27.207 23.2067 27.2967 23.5098 27.4231C23.7399 27.5308 23.9619 27.6567 24.1714 27.8044C24.2299 27.8456 24.2876 27.8886 24.3445 27.9329C24.3461 27.9341 24.347 27.9346 24.3482 27.9358C24.3687 27.9533 24.3889 27.9703 24.4091 27.9877C24.5141 28.0797 24.615 28.1762 24.7114 28.2779C24.8079 28.3796 24.8999 28.486 24.9867 28.5966C25.0033 28.6179 25.0198 28.6396 25.036 28.6609C25.0368 28.6621 25.0376 28.663 25.0384 28.6647C25.0779 28.7209 25.1159 28.7779 25.1526 28.8358C25.2959 29.0604 25.4182 29.2983 25.5219 29.5455C25.6414 29.865 25.727 30.1965 25.777 30.536C25.8081 30.8364 25.8069 31.1364 25.8069 31.4385C25.8069 31.875 25.8069 32.3112 25.8069 32.7477C25.8069 33.4026 25.8069 34.0578 25.8069 34.7127C25.8069 35.4747 25.8069 36.2372 25.8069 36.9993C25.8069 37.766 25.8069 38.5332 25.8069 39.2999C25.8069 39.9667 25.8069 40.6334 25.8069 41.2997C25.8069 41.761 25.8069 42.2226 25.8069 42.6839C25.8069 42.9455 25.8004 43.2089 25.8178 43.4702C25.8977 44.6645 26.3478 45.7866 27.1118 46.6737C27.2374 46.8197 27.3722 46.9575 27.5143 47.0877C27.1813 47.0877 26.8479 47.0877 26.5145 47.0877C25.9167 47.0873 25.3177 47.0873 24.7183 47.0873Z" fill="#1CB9C8"/>
<path d="M2.8129 31.196C2.88111 31.196 2.94933 31.196 3.01754 31.196C3.20321 31.196 3.38848 31.196 3.57415 31.196C3.847 31.196 4.11986 31.196 4.39312 31.196C4.72773 31.196 5.06194 31.196 5.39655 31.196C5.76305 31.196 6.12955 31.196 6.49565 31.196C6.86538 31.196 7.23551 31.196 7.60524 31.196C7.94873 31.196 8.29222 31.196 8.63531 31.196C8.92673 31.196 9.21856 31.196 9.50999 31.196C9.71987 31.196 9.92936 31.196 10.1392 31.196C10.2385 31.196 10.3378 31.1969 10.4371 31.196C10.4416 31.196 10.4456 31.196 10.45 31.196C10.6054 31.196 10.7685 31.125 10.8783 31.0092C10.9832 30.8986 11.0624 30.7169 11.0555 30.5578C11.0486 30.3927 10.997 30.2216 10.8783 30.1063C10.76 29.9919 10.6143 29.9195 10.45 29.9195C10.3818 29.9195 10.3136 29.9195 10.2454 29.9195C10.0597 29.9195 9.87446 29.9195 9.68879 29.9195C9.41594 29.9195 9.14308 29.9195 8.86982 29.9195C8.53521 29.9195 8.201 29.9195 7.86639 29.9195C7.49989 29.9195 7.13339 29.9195 6.76729 29.9195C6.39756 29.9195 6.02743 29.9195 5.6577 29.9195C5.31421 29.9195 4.97072 29.9195 4.62764 29.9195C4.33581 29.9195 4.04438 29.9195 3.75296 29.9195C3.54307 29.9195 3.33359 29.9195 3.1237 29.9195C3.0244 29.9195 2.92511 29.9187 2.82582 29.9195C2.82138 29.9195 2.81734 29.9195 2.8129 29.9195C2.6575 29.9195 2.49443 29.9906 2.38464 30.1063C2.2797 30.2169 2.20058 30.3986 2.20745 30.5578C2.21431 30.7229 2.26597 30.8939 2.38464 31.0092C2.50331 31.1237 2.64862 31.196 2.8129 31.196Z" fill="#1CB9C8"/>
<path d="M15.7869 35.2054C15.6702 35.2054 15.554 35.2054 15.4373 35.2054C15.1233 35.2054 14.8093 35.2054 14.4953 35.2054C14.0295 35.2054 13.5641 35.2054 13.0983 35.2054C12.53 35.2054 11.9621 35.2054 11.3937 35.2054C10.7738 35.2054 10.1534 35.2054 9.53339 35.2054C8.90332 35.2054 8.27285 35.2054 7.64278 35.2054C7.05912 35.2054 6.47547 35.2054 5.89222 35.2054C5.39736 35.2054 4.90251 35.2054 4.40725 35.2054C4.05124 35.2054 3.69564 35.2054 3.33964 35.2054C3.17132 35.2054 3.00341 35.2041 2.8351 35.2054C2.82783 35.2054 2.82057 35.2054 2.8129 35.2054C2.6575 35.2054 2.49443 35.2764 2.38464 35.3922C2.2797 35.5028 2.20058 35.6845 2.20745 35.8436C2.21431 36.0087 2.26597 36.1798 2.38464 36.2951C2.50291 36.4095 2.64862 36.4819 2.8129 36.4819C2.92955 36.4819 3.04579 36.4819 3.16244 36.4819C3.47647 36.4819 3.7905 36.4819 4.10452 36.4819C4.57032 36.4819 5.03571 36.4819 5.5015 36.4819C6.06981 36.4819 6.63773 36.4819 7.20605 36.4819C7.82603 36.4819 8.44641 36.4819 9.06639 36.4819C9.69647 36.4819 10.3269 36.4819 10.957 36.4819C11.5407 36.4819 12.1243 36.4819 12.7076 36.4819C13.2024 36.4819 13.6973 36.4819 14.1925 36.4819C14.5485 36.4819 14.9041 36.4819 15.2601 36.4819C15.4285 36.4819 15.5964 36.4831 15.7647 36.4819C15.772 36.4819 15.7792 36.4819 15.7869 36.4819C15.9423 36.4819 16.1054 36.4108 16.2151 36.2951C16.3201 36.1845 16.3992 36.0028 16.3923 35.8436C16.3855 35.6785 16.3338 35.5075 16.2151 35.3922C16.0965 35.2777 15.9508 35.2054 15.7869 35.2054Z" fill="#1CB9C8"/>
<path d="M15.7869 40.4917C15.6702 40.4917 15.554 40.4917 15.4373 40.4917C15.1233 40.4917 14.8093 40.4917 14.4953 40.4917C14.0295 40.4917 13.5641 40.4917 13.0983 40.4917C12.53 40.4917 11.9621 40.4917 11.3937 40.4917C10.7738 40.4917 10.1534 40.4917 9.53339 40.4917C8.90332 40.4917 8.27285 40.4917 7.64278 40.4917C7.05912 40.4917 6.47547 40.4917 5.89222 40.4917C5.39736 40.4917 4.90251 40.4917 4.40725 40.4917C4.05124 40.4917 3.69564 40.4917 3.33964 40.4917C3.17132 40.4917 3.00341 40.4905 2.8351 40.4917C2.82783 40.4917 2.82057 40.4917 2.8129 40.4917C2.6575 40.4917 2.49443 40.5628 2.38464 40.6785C2.2797 40.7892 2.20058 40.9709 2.20745 41.13C2.21431 41.2951 2.26597 41.4661 2.38464 41.5814C2.50291 41.6959 2.64862 41.7682 2.8129 41.7682C2.92955 41.7682 3.04579 41.7682 3.16244 41.7682C3.47647 41.7682 3.7905 41.7682 4.10452 41.7682C4.57032 41.7682 5.03571 41.7682 5.5015 41.7682C6.06981 41.7682 6.63773 41.7682 7.20605 41.7682C7.82603 41.7682 8.44641 41.7682 9.06639 41.7682C9.69647 41.7682 10.3269 41.7682 10.957 41.7682C11.5407 41.7682 12.1243 41.7682 12.7076 41.7682C13.2024 41.7682 13.6973 41.7682 14.1925 41.7682C14.5485 41.7682 14.9041 41.7682 15.2601 41.7682C15.4285 41.7682 15.5964 41.7695 15.7647 41.7682C15.772 41.7682 15.7792 41.7682 15.7869 41.7682C15.9423 41.7682 16.1054 41.6972 16.2151 41.5814C16.3201 41.4708 16.3992 41.2891 16.3923 41.13C16.3855 40.9649 16.3338 40.7939 16.2151 40.6785C16.0965 40.5641 15.9508 40.4917 15.7869 40.4917Z" fill="#1CB9C8"/>
<path d="M15.7869 45.778C15.6702 45.778 15.554 45.778 15.4373 45.778C15.1233 45.778 14.8093 45.778 14.4953 45.778C14.0295 45.778 13.5641 45.778 13.0983 45.778C12.53 45.778 11.9621 45.778 11.3937 45.778C10.7738 45.778 10.1534 45.778 9.53339 45.778C8.90332 45.778 8.27285 45.778 7.64278 45.778C7.05912 45.778 6.47547 45.778 5.89222 45.778C5.39736 45.778 4.90251 45.778 4.40725 45.778C4.05124 45.778 3.69564 45.778 3.33964 45.778C3.17132 45.778 3.00341 45.7767 2.8351 45.778C2.82783 45.778 2.82057 45.778 2.8129 45.778C2.6575 45.778 2.49443 45.8491 2.38464 45.9648C2.2797 46.0754 2.20058 46.2571 2.20745 46.4162C2.21431 46.5813 2.26597 46.7524 2.38464 46.8677C2.50291 46.9822 2.64862 47.0545 2.8129 47.0545C2.92955 47.0545 3.04579 47.0545 3.16244 47.0545C3.47647 47.0545 3.7905 47.0545 4.10452 47.0545C4.57032 47.0545 5.03571 47.0545 5.5015 47.0545C6.06981 47.0545 6.63773 47.0545 7.20605 47.0545C7.82603 47.0545 8.44641 47.0545 9.06639 47.0545C9.69647 47.0545 10.3269 47.0545 10.957 47.0545C11.5407 47.0545 12.1243 47.0545 12.7076 47.0545C13.2024 47.0545 13.6973 47.0545 14.1925 47.0545C14.5485 47.0545 14.9041 47.0545 15.2601 47.0545C15.4285 47.0545 15.5964 47.0558 15.7647 47.0545C15.772 47.0545 15.7792 47.0545 15.7869 47.0545C15.9423 47.0545 16.1054 46.9834 16.2151 46.8677C16.3201 46.7571 16.3992 46.5754 16.3923 46.4162C16.3855 46.2512 16.3338 46.0801 16.2151 45.9648C16.0965 45.8503 15.9508 45.778 15.7869 45.778Z" fill="#1CB9C8"/>
<ellipse cx="26.6086" cy="7.5" rx="7.43478" ry="7.5" fill="#1CB9C8"/>
<ellipse cx="26.6079" cy="7.10526" rx="7.04348" ry="7.10526" fill="#010F1C"/>
<path d="M47.0625 33.3125V47H39.4219V23H46.6875V27.4062H46.9531C47.4844 25.9375 48.3906 24.7865 49.6719 23.9531C50.9531 23.1094 52.4792 22.6875 54.25 22.6875C55.9375 22.6875 57.401 23.0677 58.6406 23.8281C59.8906 24.5781 60.8594 25.6302 61.5469 26.9844C62.2448 28.3281 62.5885 29.901 62.5781 31.7031V47H54.9375V33.2031C54.9479 31.8698 54.6094 30.8281 53.9219 30.0781C53.2448 29.3281 52.3021 28.9531 51.0938 28.9531C50.2917 28.9531 49.5833 29.1302 48.9688 29.4844C48.3646 29.8281 47.8958 30.3229 47.5625 30.9687C47.2396 31.6146 47.0729 32.3958 47.0625 33.3125ZM89.7305 23L81.4961 47H72.7461L64.5273 23H72.5742L76.9961 39.5312H77.2461L81.6836 23H89.7305ZM103.09 47.4531C100.559 47.4531 98.3867 46.9323 96.5742 45.8906C94.7721 44.849 93.3867 43.401 92.418 41.5469C91.4492 39.6823 90.9648 37.526 90.9648 35.0781C90.9648 32.6198 91.4492 30.4635 92.418 28.6094C93.3971 26.7448 94.7878 25.2917 96.5898 24.25C98.4023 23.2083 100.564 22.6875 103.074 22.6875C105.293 22.6875 107.225 23.0885 108.871 23.8906C110.527 24.6927 111.819 25.8281 112.746 27.2969C113.684 28.7552 114.178 30.4687 114.23 32.4375H107.09C106.944 31.2083 106.527 30.2448 105.84 29.5469C105.163 28.849 104.277 28.5 103.184 28.5C102.298 28.5 101.522 28.75 100.855 29.25C100.189 29.7396 99.668 30.4687 99.293 31.4375C98.9284 32.3958 98.7461 33.5833 98.7461 35C98.7461 36.4167 98.9284 37.6146 99.293 38.5937C99.668 39.5625 100.189 40.2969 100.855 40.7969C101.522 41.2865 102.298 41.5312 103.184 41.5312C103.892 41.5312 104.517 41.3802 105.059 41.0781C105.611 40.776 106.064 40.3333 106.418 39.75C106.772 39.1562 106.996 38.4375 107.09 37.5937H114.23C114.158 39.5729 113.663 41.3021 112.746 42.7812C111.84 44.2604 110.564 45.4115 108.918 46.2344C107.283 47.0469 105.34 47.4531 103.09 47.4531ZM129.359 47.4531C126.849 47.4531 124.682 46.9583 122.859 45.9688C121.047 44.9687 119.651 43.5469 118.672 41.7031C117.703 39.849 117.219 37.6458 117.219 35.0937C117.219 32.6146 117.708 30.4479 118.688 28.5937C119.667 26.7292 121.047 25.2812 122.828 24.25C124.609 23.2083 126.708 22.6875 129.125 22.6875C130.833 22.6875 132.396 22.9531 133.813 23.4844C135.229 24.0156 136.453 24.8021 137.484 25.8437C138.516 26.8854 139.318 28.1719 139.891 29.7031C140.464 31.224 140.75 32.9687 140.75 34.9375V36.8437H119.891V32.4062H133.641C133.63 31.5937 133.438 30.8698 133.063 30.2344C132.688 29.599 132.172 29.1042 131.516 28.75C130.87 28.3854 130.125 28.2031 129.281 28.2031C128.427 28.2031 127.661 28.3958 126.984 28.7812C126.307 29.1563 125.771 29.6719 125.375 30.3281C124.979 30.974 124.771 31.7083 124.75 32.5312V37.0469C124.75 38.026 124.943 38.8854 125.328 39.625C125.714 40.3542 126.26 40.9219 126.969 41.3281C127.677 41.7344 128.521 41.9375 129.5 41.9375C130.177 41.9375 130.792 41.8437 131.344 41.6562C131.896 41.4688 132.37 41.1927 132.766 40.8281C133.161 40.4635 133.458 40.0156 133.656 39.4844L140.672 39.6875C140.38 41.2604 139.74 42.6302 138.75 43.7969C137.771 44.9531 136.484 45.8542 134.891 46.5C133.297 47.1354 131.453 47.4531 129.359 47.4531Z" fill="#010F1C"/>
</svg>
